# xmcd
#
# Track frame offsets: 
#        150
#        17140
#        57052
#        74602
#        93510
#        108060
#        119572
#        137207
#        152977
#        167117
#
# Disc length: 2525 seconds
#
# Revision: 4
# Processed by: cddbd v1.5.2PL0 Copyright (c) Steve Scherf et al.
# Submitted via: ExactAudioCopy v0.95b3
#
DISCID=8a09db0a
DTITLE=Lorrie Morgan - Merry Christmas from London
DYEAR=1993
DGENRE=Christmas
TTITLE0=My Favorite Things
TTITLE1=A Christmas Festival (Medley)
TTITLE2=Little Snow Girl
TTITLE3=Up On Santa Claus Mountain
TTITLE4=O Holy Night
TTITLE5=Let It Snow! Let It Snow!
TTITLE6=Blue Snowfall
TTITLE7=Toyland
TTITLE8=Sleigh Ride
TTITLE9=Ave Maria
EXTD=
EXTT0=
EXTT1=
EXTT2=
EXTT3=
EXTT4=
EXTT5=
EXTT6=
EXTT7=
EXTT8=
EXTT9=
PLAYORDER=
